<svg width="20" height="16" viewBox="0 0 20 16" fill="none" xmlns="http://www.w3.org/2000/svg">
<path d="M10.9827 4.89177L11.2352 5.14431C11.4025 5.31166 11.6739 5.31166 11.8413 5.14431L14.8214 2.14688L14.8214 15.5714C14.8214 15.8081 15.0133 16 15.25 16L15.6071 16C15.8438 16 16.0357 15.8081 16.0357 15.5714L16.0357 2.14688L19.0159 5.14431C19.1832 5.31167 19.4546 5.31167 19.622 5.14431L19.8745 4.89177C20.0418 4.72441 20.0418 4.45306 19.8745 4.2857L15.7316 0.125517C15.5643 -0.04184 15.2929 -0.04184 15.1255 0.125516L10.9826 4.2857C10.8153 4.45306 10.8153 4.72441 10.9827 4.89177Z" fill="#212121"/>
<path d="M4.11272 5.936H1.88872L1.52072 7H0.344719L2.35272 1.408H3.65672L5.66472 7H4.48072L4.11272 5.936ZM3.80872 5.04L3.00072 2.704L2.19272 5.04H3.80872ZM2.39131 14.056H4.90331V15H1.09531V14.136L3.59131 10.36H1.09531V9.416H4.90331V10.28L2.39131 14.056Z" fill="#212121"/>
</svg>
